<mxfile host="app.diagrams.net" modified="2021-08-02T14:18:58.854Z" agent="5.0 (Windows NT 10.0; Win64; x64) AppleWebKit/537.36 (KHTML, like Gecko) Chrome/81.0.4044.138 Safari/537.36" etag="o7MVsfCkZAmCbKFW9yLs" version="14.9.3" type="github">
  <diagram id="FinAkh8NVonPjTeruc-w" name="Page-1">
    <mxGraphModel dx="1038" dy="531" grid="1" gridSize="10" guides="1" tooltips="1" connect="1" arrows="1" fold="1" page="1" pageScale="1" pageWidth="850" pageHeight="1100" math="0" shadow="0">
      <root>
        <mxCell id="0" />
        <mxCell id="1" parent="0" />
        <mxCell id="B1uYKXSwSXnF3B5j759q-1" value="Agent&lt;br&gt;" style="swimlane;html=1;startSize=20;fontStyle=0;collapsible=0;horizontal=0;swimlaneLine=1;swimlaneFillColor=#ffffff;strokeWidth=2;" vertex="1" parent="1">
          <mxGeometry x="30" y="50" width="440" height="100" as="geometry" />
        </mxCell>
        <mxCell id="B1uYKXSwSXnF3B5j759q-7" style="edgeStyle=orthogonalEdgeStyle;rounded=0;orthogonalLoop=1;jettySize=auto;html=1;entryX=0;entryY=0.5;entryDx=0;entryDy=0;entryPerimeter=0;" edge="1" parent="B1uYKXSwSXnF3B5j759q-1" source="B1uYKXSwSXnF3B5j759q-5" target="B1uYKXSwSXnF3B5j759q-6">
          <mxGeometry relative="1" as="geometry" />
        </mxCell>
        <mxCell id="B1uYKXSwSXnF3B5j759q-5" value="request is created" style="points=[[0.145,0.145,0],[0.5,0,0],[0.855,0.145,0],[1,0.5,0],[0.855,0.855,0],[0.5,1,0],[0.145,0.855,0],[0,0.5,0]];shape=mxgraph.bpmn.event;html=1;verticalLabelPosition=bottom;labelBackgroundColor=#ffffff;verticalAlign=top;align=center;perimeter=ellipsePerimeter;outlineConnect=0;aspect=fixed;outline=standard;symbol=general;" vertex="1" parent="B1uYKXSwSXnF3B5j759q-1">
          <mxGeometry x="50" y="20" width="50" height="50" as="geometry" />
        </mxCell>
        <mxCell id="B1uYKXSwSXnF3B5j759q-6" value="" style="points=[[0.145,0.145,0],[0.5,0,0],[0.855,0.145,0],[1,0.5,0],[0.855,0.855,0],[0.5,1,0],[0.145,0.855,0],[0,0.5,0]];shape=mxgraph.bpmn.event;html=1;verticalLabelPosition=bottom;labelBackgroundColor=#ffffff;verticalAlign=top;align=center;perimeter=ellipsePerimeter;outlineConnect=0;aspect=fixed;outline=standard;symbol=message;" vertex="1" parent="B1uYKXSwSXnF3B5j759q-1">
          <mxGeometry x="200" y="20" width="50" height="50" as="geometry" />
        </mxCell>
        <mxCell id="B1uYKXSwSXnF3B5j759q-2" value="NDC" style="swimlane;html=1;startSize=20;fontStyle=0;collapsible=0;horizontal=0;swimlaneLine=1;swimlaneFillColor=#ffffff;strokeWidth=2;" vertex="1" parent="1">
          <mxGeometry x="30" y="150" width="440" height="100" as="geometry" />
        </mxCell>
        <mxCell id="B1uYKXSwSXnF3B5j759q-3" value="Host (Amadeus)" style="swimlane;html=1;startSize=20;fontStyle=0;collapsible=0;horizontal=0;swimlaneLine=1;swimlaneFillColor=#ffffff;strokeWidth=2;" vertex="1" parent="1">
          <mxGeometry x="30" y="250" width="440" height="100" as="geometry" />
        </mxCell>
        <mxCell id="B1uYKXSwSXnF3B5j759q-4" value="" style="swimlane;html=1;startSize=20;fontStyle=0;collapsible=0;horizontal=0;swimlaneLine=1;swimlaneFillColor=#ffffff;strokeWidth=2;" vertex="1" parent="1">
          <mxGeometry x="30" y="350" width="440" height="100" as="geometry" />
        </mxCell>
      </root>
    </mxGraphModel>
  </diagram>
</mxfile>
